:version 1.10
:name ASF
:units
  mass 1
  length 1
  angle deg
:documentation
  ASF file generated by Kaydara
:root
  axis xyz
  order  tx ty tz rx ry rz
  position 0 0 0
  orientation 0 0 0
:bonedata
  begin
    id 1
    name RightUpLegDummy
    direction -1 2.30186e-007 8.31532e-007
    length 4.46685
    axis 0 0 0 xyz
  end
  begin
    id 2
    name RightUpLeg
    direction -2.30187e-007 -1 1.24343e-010
    length 16.4045
    axis -3.49089 -0.000906625 0.000286804 xyz
    dof rx ry rz
  end
  begin
    id 3
    name RightLeg
    direction -2.30181e-007 -1 -4.17157e-009
    length 17.5097
    axis 3.68512 0.0193738 -0.131023 xyz
    dof rx ry rz
  end
  begin
    id 4
    name RightFoot
    direction 8.31421e-007 -4.51202e-011 1
    length 6.49508
    axis 4.81691e-005 -0.120479 -0.188788 xyz
    dof rx ry rz
  end
  begin
    id 5
    name RightToes
    direction 0.00124746 -0.014064 0.9999
    length 3.85082
    axis 0.000481921 0.542163 -0.142578 xyz
    dof rx ry rz
  end
  begin
    id 6
    name SpineDummy
    direction 0.0717043 0.9409 -0.331007
    length 10.0032
    axis 0 0 0 xyz
  end
  begin
    id 7
    name Spine
    direction 2.30186e-007 1 4.58806e-011
    length 9.84055
    axis -0.001389 0.000121418 2.40972e-006 xyz
    dof rx ry rz
  end
  begin
    id 8
    name Spine1
    direction 0 0 0
    length 0
    axis -0.001389 0.000121451 1.30017e-006 xyz
    dof rx ry rz
  end
  begin
    id 9
    name HEadDummy
    direction -0.00347485 0.950688 -0.310128
    length 8.00997
    axis -0.001389 0.000121451 1.30017e-006 xyz
  end
  begin
    id 10
    name HEad
    direction -0.0222688 0.980941 0.193023
    length 5.12695
    axis -0.001389 0.000121451 1.30017e-006 xyz
    dof rx ry rz
  end
  begin
    id 11
    name LeftShoulder1Dummy
    direction 0.988871 0.146793 -0.0242004
    length 3.5792
    axis -0.001389 0.000121451 1.30017e-006 xyz
  end
  begin
    id 12
    name LeftShoulder1
    direction 0.993832 0.108932 0.020779
    length 4.16823
    axis -0.001389 0.000121451 1.30017e-006 xyz
    dof rx ry rz
  end
  begin
    id 13
    name LeftArm
    direction 1 3.44807e-006 -8.31404e-007
    length 9.91437
    axis -23.1894 0.134784 0.967509 xyz
    dof rx ry rz
  end
  begin
    id 14
    name LeftForeArm
    direction 1 3.44842e-006 -8.31581e-007
    length 9.08575
    axis -9.91835 -0.06569 -0.177793 xyz
    dof rx ry rz
  end
  begin
    id 15
    name LeftHand
    direction 0.992938 -0.0411636 0.11126
    length 5.32135
    axis -0.00960232 -0.00340091 0.185173 xyz
    dof rx ry rz
  end
  begin
    id 16
    name RightShoulderDummy
    direction -0.988871 0.146793 -0.0241962
    length 3.5792
    axis -0.001389 0.000121451 1.30017e-006 xyz
  end
  begin
    id 17
    name RightShoulder
    direction -0.993832 0.108933 0.0207785
    length 4.16823
    axis 0.215806 0.000203643 -0.0068026 xyz
    dof rx ry rz
  end
  begin
    id 18
    name RightArm
    direction -1 3.90912e-006 8.31284e-007
    length 9.91437
    axis -23.2009 -0.134239 -0.964101 xyz
    dof rx ry rz
  end
  begin
    id 19
    name RightForeArm
    direction -1 3.90882e-006 8.31502e-007
    length 9.08575
    axis -9.92322 0.0658061 0.178867 xyz
    dof rx ry rz
  end
  begin
    id 20
    name RightHand
    direction -0.992843 -0.0414603 0.112003
    length 5.28593
    axis -0.00960638 0.00330671 -0.185228 xyz
    dof rx ry rz
  end
  begin
    id 21
    name LeftUpLegDummy
    direction 1 -2.30186e-007 -8.31532e-007
    length 4.46685
    axis 0 0 0 xyz
  end
  begin
    id 22
    name LeftUpLeg
    direction -2.30187e-007 -1 6.00931e-010
    length 16.4045
    axis -3.48766 0.00143442 -0.000524262 xyz
    dof rx ry rz
  end
  begin
    id 23
    name LeftLeg
    direction -2.30187e-007 -1 1.6669e-009
    length 17.5097
    axis 3.68178 -0.00654042 -0.000285133 xyz
    dof rx ry rz
  end
  begin
    id 24
    name LeftFoot
    direction 8.31532e-007 -4.54478e-011 1
    length 6.49508
    axis 1.87233e-006 4.66016e-005 -8.6538e-006 xyz
    dof rx ry rz
  end
  begin
    id 25
    name LeftToes
    direction 0.00818058 -0.00485161 0.999955
    length 3.85048
    axis 1.06247e-005 4.65869e-005 -8.65513e-006 xyz
    dof rx ry rz
  end
:hierarchy
  begin
    root RightUpLegDummy SpineDummy LeftUpLegDummy
    RightUpLegDummy RightUpLeg
    RightUpLeg RightLeg
    RightLeg RightFoot
    RightFoot RightToes
    SpineDummy Spine
    Spine Spine1
    Spine1 HEadDummy LeftShoulder1Dummy RightShoulderDummy
    HEadDummy HEad
    LeftShoulder1Dummy LeftShoulder1
    LeftShoulder1 LeftArm
    LeftArm LeftForeArm
    LeftForeArm LeftHand
    RightShoulderDummy RightShoulder
    RightShoulder RightArm
    RightArm RightForeArm
    RightForeArm RightHand
    LeftUpLegDummy LeftUpLeg
    LeftUpLeg LeftLeg
    LeftLeg LeftFoot
    LeftFoot LeftToes
  end

:SAMPLES-PER-SECOND 30
:FULLY-SPECIFIED
:DEGREES
174
root  -37.9706 31.3541 16.7295 8.45924 -43.8505 -5.9687
RightUpLeg  -37.3749 -22.233 8.0066
RightLeg  40.0537 -4.61829 -3.41497
RightFoot  2.01173 0.0131488 -0.371213
RightToes  -23.7737 -0.103479 -0.20645
Spine  9.02092 -0.998404 0.979511
Spine1  15.5945 -2.01107 -0.548785
HEad  -7.83944 -24.2839 26.7857
LeftShoulder1  0 -2.42657e-020 -4.95415e-022
LeftArm  -18.1734 -19.7717 -82.5698
LeftForeArm  38.097 -26.5726 -5.04405
LeftHand  0.249156 -6.66944 -4.64886
RightShoulder  0 2.42657e-020 1.07489e-018
RightArm  -27.1028 14.4663 80.6449
RightForeArm  45.3761 22.6164 4.18953
RightHand  -0.119487 21.7546 -0.251869
LeftUpLeg  -11.7875 -1.16145 10.8076
LeftLeg  63.8434 2.58422 4.48238
LeftFoot  -12.9804 -0.175231 -1.54025
LeftToes  -9.72836 1.33192e-006 1.13262e-007
175
root  -38.4441 31.7938 16.9593 8.47903 -44.0539 -5.02318
RightUpLeg  -35.5604 -21.9915 7.47997
RightLeg  37.2658 -4.58993 -3.05832
RightFoot  2.3443 0.0155767 -0.39204
RightToes  -23.6212 -0.102552 -0.205281
Spine  9.054 -0.732222 0.890527
Spine1  15.7269 -1.30317 -0.745346
HEad  -9.7501 -23.7091 27.4042
LeftShoulder1  0 -2.42657e-020 -4.95415e-022
LeftArm  -12.443 -20.1941 -84.4126
LeftForeArm  40.0128 -30.0815 -5.84541
LeftHand  0.376974 -8.28252 -5.57753
RightShoulder  0 2.42657e-020 1.07489e-018
RightArm  -29.6531 15.4544 79.2947
RightForeArm  47.0763 21.8587 4.0306
RightHand  -0.472093 20.6498 -2.2216
LeftUpLeg  -17.0699 -0.720016 8.51524
LeftLeg  65.076 1.20311 2.19208
LeftFoot  -12.1911 -0.0924827 -0.866011
LeftToes  -14.1446 1.33192e-006 1.13262e-007
176
root  -38.85 32.273 17.185 8.31981 -44.1764 -3.92369
RightUpLeg  -33.3134 -21.4811 6.6901
RightLeg  33.6625 -4.90925 -2.8381
RightFoot  3.22331 0.0238649 -0.470529
RightToes  -21.0456 -0.0873638 -0.185175
Spine  8.96837 -0.431788 0.691542
Spine1  15.6657 -0.504695 -1.09044
HEad  -11.1832 -23.5798 27.3585
LeftShoulder1  0 -2.42657e-020 -4.95415e-022
LeftArm  -7.32173 -20.201 -85.6397
LeftForeArm  45.4513 -33.2601 -6.61827
LeftHand  0.565896 -10.4864 -6.53496
RightShoulder  0 2.42657e-020 1.07489e-018
RightArm  -31.4366 15.4257 77.8615
RightForeArm  47.3173 21.7591 4.0098
RightHand  -0.629834 20.1873 -3.16803
LeftUpLeg  -21.5087 -0.512671 6.54308
LeftLeg  63.0439 0.499446 0.83136
LeftFoot  -10.9443 -0.0455815 -0.475811
LeftToes  -16.745 1.33192e-006 1.13262e-007
177
root  -39.179 32.7098 17.412 7.8577 -44.1535 -2.20769
RightUpLeg  -31.2446 -20.6456 5.37603
RightLeg  30.0232 -5.97806 -2.95916
RightFoot  4.34005 0.0380338 -0.626062
RightToes  -24.6405 -0.10881 -0.213046
Spine  8.75256 -0.139154 0.279674
Spine1  15.3435 0.345519 -1.87358
HEad  -12.5511 -23.6002 27.2805
LeftShoulder1  0 -2.42657e-020 -4.95415e-022
LeftArm  -2.74408 -19.8233 -86.0137
LeftForeArm  50.8797 -36.5341 -7.47644
LeftHand  0.664828 -12.3494 -6.51285
RightShoulder  0 2.42657e-020 1.07489e-018
RightArm  -31.9923 14.6323 76.5413
RightForeArm  45.8092 22.0081 4.06326
RightHand  -0.652615 19.8397 -3.36145
LeftUpLeg  -25.2691 -1.54097 4.61509
LeftLeg  58.2626 0.715485 0.996055
LeftFoot  -10.3713 -0.0412877 -0.454945
LeftToes  -17.4036 1.33192e-006 1.13262e-007
178
root  -39.4455 33.061 17.653 7.58743 -44.3008 -0.605026
RightUpLeg  -29.7239 -20.3616 4.30358
RightLeg  26.7505 -6.34317 -2.69818
RightFoot  5.31151 0.0511222 -0.724453
RightToes  -24.4895 -0.107874 -0.211903
Spine  8.48873 0.18706 -0.175766
Spine1  14.9265 1.22774 -2.64944
HEad  -14.0876 -23.6704 27.0761
LeftShoulder1  0 -2.42657e-020 -4.95415e-022
LeftArm  0.78127 -19.1543 -85.7886
LeftForeArm  53.524 -39.8314 -8.42536
LeftHand  0.719176 -13.2502 -6.5593
RightShoulder  0 2.42657e-020 1.07489e-018
RightArm  -31.9126 13.4493 75.1932
RightForeArm  44.7679 22.4138 4.14848
RightHand  -0.522284 20.0028 -2.59177
LeftUpLeg  -28.0481 -3.18549 3.45422
LeftLeg  51.4683 1.99846 2.19361
LeftFoot  -9.9459 -0.0612763 -0.704221
LeftToes  -16.6127 1.33192e-006 1.13262e-007
179
root  -39.7079 33.2888 17.9175 7.65228 -45.0241 0.217392
RightUpLeg  -28.4668 -19.8098 3.65805
RightLeg  24.2882 -6.43899 -2.4169
RightFoot  5.65969 0.0550851 -0.736724
RightToes  -22.9128 -0.0982847 -0.19982
Spine  8.33897 0.602653 -0.481823
Spine1  14.7092 2.20645 -3.07659
HEad  -15.04 -23.693 26.0822
LeftShoulder1  0 -2.42657e-020 -4.95415e-022
LeftArm  2.65119 -18.5476 -85.4524
LeftForeArm  53.1027 -41.8649 -9.06337
LeftHand  0.728206 -13.3132 -6.60697
RightShoulder  0 2.42657e-020 1.07489e-018
RightArm  -30.9664 12.2227 73.7469
RightForeArm  43.7741 23.1358 4.30004
RightHand  -0.376233 20.3036 -1.73145
LeftUpLeg  -29.3191 -4.55825 3.51781
LeftLeg  43.2161 2.10927 1.73401
LeftFoot  -8.7634 -0.0451855 -0.589704
LeftToes  -17.8097 1.33192e-006 1.13262e-007
180
root  -40.0164 33.3941 18.2264 7.86345 -46.4037 0.208817
RightUpLeg  -27.0437 -18.9451 3.59762
RightLeg  22.3114 -6.06434 -2.04097
RightFoot  6.28254 0.0611316 -0.736238
RightToes  -24.7659 -0.109589 -0.213993
Spine  8.27231 0.979069 -0.522479
Spine1  14.6512 3.06091 -3.08281
HEad  -14.8317 -23.1428 23.9411
LeftShoulder1  0 -2.42657e-020 -4.95415e-022
LeftArm  2.18197 -17.327 -85.2319
LeftForeArm  51.4448 -42.7822 -9.36825
LeftHand  0.689291 -12.9071 -6.46144
RightShoulder  0 2.42657e-020 1.07489e-018
RightArm  -29.5184 11.6314 72.3926
RightForeArm  43.0812 23.4847 4.37416
RightHand  -0.297034 20.8103 -1.24785
LeftUpLeg  -29.2663 -5.79428 4.54292
LeftLeg  35.7636 0.614389 0.380516
LeftFoot  -5.9225 -0.0121502 -0.234887
LeftToes  -20.0868 1.33192e-006 1.13262e-007
181
root  -40.3362 33.4398 18.5846 8.58548 -48.6537 -0.81192
RightUpLeg  -25.5228 -17.0391 3.83886
RightLeg  20.8037 -6.01489 -1.84937
RightFoot  6.0428 0.0599785 -0.677415
RightToes  -22.3738 -0.095083 -0.195629
Spine  8.10287 1.34786 -0.341297
Spine1  14.4073 3.91582 -2.85342
HEad  -12.7532 -21.9122 20.8012
LeftShoulder1  0 -2.42657e-020 -4.95415e-022
LeftArm  -0.0669899 -15.201 -84.9664
LeftForeArm  49.9269 -42.8924 -9.40824
LeftHand  0.604812 -12.2147 -6.02129
RightShoulder  0 2.42657e-020 1.07489e-018
RightArm  -28.4383 11.324 71.6388
RightForeArm  43.9247 23.269 4.32771
RightHand  -0.259284 21.2401 -1.01302
LeftUpLeg  -28.3699 -7.2238 6.38219
LeftLeg  30.6893 -2.39207 -1.22249
LeftFoot  -3.8541 0.00111444 0.0331133
LeftToes  -21.4884 1.33192e-006 1.13262e-007
182
root  -40.5868 33.4567 19.0235 8.89914 -51.4844 -1.66389
RightUpLeg  -24.0471 -14.7838 3.6889
RightLeg  19.7484 -5.68608 -1.63458
RightFoot  6.359 0.0597491 -0.654714
RightToes  -23.5178 -0.101925 -0.204487
Spine  7.83465 1.49643 -0.257487
Spine1  14.0108 4.27368 -2.79322
HEad  -9.24745 -19.9731 17.2189
LeftShoulder1  0 -2.42657e-020 -4.95415e-022
LeftArm  -3.62034 -12.3342 -84.2638
LeftForeArm  49.2018 -42.4201 -9.25283
LeftHand  0.557679 -11.6994 -5.81258
RightShoulder  0 2.42657e-020 1.07489e-018
RightArm  -28.5718 10.7754 71.8891
RightForeArm  45.0798 23.2181 4.31535
RightHand  -0.268507 21.4623 -1.04704
LeftUpLeg  -26.6877 -9.10512 7.6883
LeftLeg  28.1159 -5.24374 -2.38117
LeftFoot  -2.13763 0.00172576 0.0924922
LeftToes  -22.3239 1.33192e-006 1.13262e-007
183
root  -40.7987 33.4835 19.486 9.52562 -54.1643 -2.85542
RightUpLeg  -22.6837 -13.2439 3.68241
RightLeg  18.7733 -4.61352 -1.24254
RightFoot  6.7628 0.0553234 -0.558705
RightToes  -24.3803 -0.107199 -0.211075
Spine  7.44454 1.39516 -0.153854
Spine1  13.4043 4.03253 -2.61113
HEad  -5.50735 -17.8271 14.5963
LeftShoulder1  0 -2.42657e-020 -4.95415e-022
LeftArm  -7.35689 -8.98742 -83.3292
LeftForeArm  48.7922 -41.5849 -8.98215
LeftHand  0.558882 -11.4717 -5.93323
RightShoulder  0 2.42657e-020 1.07489e-018
RightArm  -29.5255 9.52142 72.5885
RightForeArm  44.472 23.2507 4.32307
RightHand  -0.402379 21.4613 -1.75357
LeftUpLeg  -24.9862 -10.7431 8.50012
LeftLeg  28.1217 -8.05699 -3.64801
LeftFoot  0.0741302 6.9218e-005 -0.107013
LeftToes  -22.6477 1.33192e-006 1.13262e-007
184
root  -40.9426 33.4971 19.969 10.11 -56.4724 -3.89424
RightUpLeg  -21.5295 -11.5674 3.44922
RightLeg  17.9578 -4.1823 -1.0629
RightFoot  7.17983 0.0578736 -0.544844
RightToes  -25.8507 -0.116417 -0.222118
Spine  7.07038 1.03765 -0.119486
Spine1  12.8419 3.234 -2.51545
HEad  -2.38817 -15.9048 13.5132
LeftShoulder1  0 -2.42657e-020 -4.95415e-022
LeftArm  -10.6504 -5.79588 -82.2003
LeftForeArm  48.2847 -40.5908 -8.66931
LeftHand  0.541465 -11.2255 -5.87901
RightShoulder  0 2.42657e-020 1.07489e-018
RightArm  -30.9277 7.83479 73.3698
RightForeArm  42.5688 23.3287 4.34211
RightHand  -0.451653 21.4915 -2.01014
LeftUpLeg  -23.4796 -11.0268 8.35707
LeftLeg  29.2635 -8.05824 -3.8428
LeftFoot  -2.25332 0.00510171 0.259401
LeftToes  -18.178 1.33192e-006 1.13262e-007
185
root  -41.0013 33.5013 20.4462 10.6982 -58.2645 -4.89619
RightUpLeg  -20.7608 -10.5845 3.1459
RightLeg  17.6279 -3.44332 -0.854319
RightFoot  7.49864 0.0556222 -0.483749
RightToes  -27.0166 -0.123926 -0.230705
Spine  6.80822 0.519222 -0.0690916
Spine1  12.4813 2.08617 -2.34322
HEad  -0.0739442 -15.0542 13.837
LeftShoulder1  0 -2.42657e-020 -4.95415e-022
LeftArm  -13.6694 -3.15407 -81.3664
LeftForeArm  48.2582 -39.015 -8.19124
LeftHand  0.562256 -11.0666 -6.17275
RightShoulder  0 2.42657e-020 1.07489e-018
RightArm  -32.7091 5.56235 73.7787
RightForeArm  40.6947 23.4813 4.37657
RightHand  -0.363302 23.0211 -1.41423
LeftUpLeg  -22.0931 -9.95229 7.81175
LeftLeg  29.2665 -7.33534 -3.50174
LeftFoot  -3.54236 0.0124181 0.401572
LeftToes  -15.4066 1.33192e-006 1.13262e-007
186
root  -40.9312 33.488 20.9069 11.2338 -59.6147 -5.63452
RightUpLeg  -20.7335 -9.76151 2.64973
RightLeg  18.0484 -2.92101 -0.747902
RightFoot  7.66561 0.0536985 -0.442705
RightToes  -28.0928 -0.131011 -0.238494
Spine  6.66367 -0.00528889 -0.104929
Spine1  12.3401 0.885921 -2.22052
HEad  1.07847 -15.5298 15.3271
LeftShoulder1  0 -2.42657e-020 -4.95415e-022
LeftArm  -16.0308 -1.73825 -80.8115
LeftForeArm  47.9341 -36.3406 -7.42867
LeftHand  0.576702 -10.8361 -6.44882
RightShoulder  0 2.42657e-020 1.07489e-018
RightArm  -34.7473 3.17195 73.911
RightForeArm  39.6522 23.5132 4.38455
RightHand  -0.439383 22.2627 -1.86333
LeftUpLeg  -21.5139 -8.79882 7.15637
LeftLeg  29.5803 -7.00512 -3.39248
LeftFoot  -4.21243 0.016969 0.461392
LeftToes  -14.3054 1.33192e-006 1.13262e-007
187
root  -40.7843 33.4517 21.3709 11.6306 -60.5892 -6.17491
RightUpLeg  -21.2452 -8.99081 1.9928
RightLeg  19.2327 -2.68692 -0.748045
RightFoot  7.75399 0.0541897 -0.440984
RightToes  -29.2902 -0.139064 -0.247002
Spine  6.59386 -0.514976 -0.202662
Spine1  12.3242 -0.310278 -2.15428
HEad  1.38365 -16.6315 17.5006
LeftShoulder1  0 -2.42657e-020 -4.95415e-022
LeftArm  -17.9854 -1.38663 -80.5858
LeftForeArm  46.8352 -32.2505 -6.36208
LeftHand  0.54018 -10.4342 -6.28489
RightShoulder  0 2.42657e-020 1.07489e-018
RightArm  -36.9156 0.654283 73.8818
RightForeArm  39.9335 23.0548 4.28813
RightHand  -0.565975 21.7313 -2.57869
LeftUpLeg  -21.5162 -7.98518 6.51279
LeftLeg  30.5045 -6.98298 -3.52143
LeftFoot  -4.70093 0.0212898 0.518664
LeftToes  -14.6467 1.33192e-006 1.13262e-007
188
root  -40.5097 33.3718 21.8047 12.0146 -62.1526 -6.64287
RightUpLeg  -22.4727 -8.13777 1.28973
RightLeg  21.0502 -2.15619 -0.675842
RightFoot  7.86769 0.0531718 -0.404503
RightToes  -30.2089 -0.145362 -0.253415
Spine  6.68686 -0.859072 -0.404612
Spine1  12.5474 -1.25815 -2.0819
HEad  1.08366 -17.8096 19.5372
LeftShoulder1  0 -2.42657e-020 -4.95415e-022
LeftArm  -20.4235 -2.00676 -80.5277
LeftForeArm  46.7136 -26.8665 -5.09771
LeftHand  0.55395 -10.185 -6.58443
RightShoulder  0 2.42657e-020 1.07489e-018
RightArm  -39.6835 -1.35204 74.0179
RightForeArm  42.0935 22.3811 4.14545
RightHand  -0.688225 21.3555 -3.27985
LeftUpLeg  -21.813 -6.7879 5.61891
LeftLeg  31.6488 -6.26907 -3.32228
LeftFoot  -5.52281 0.026386 0.547041
LeftToes  -14.4095 1.33192e-006 1.13262e-007
